<svg xmlns="http://www.w3.org/2000/svg" fill="none" viewBox="6.68 751.52 2556.32 993.77">
<path d="M576.263 1270.11C677.203 1270.11 756.844 1213.62 787.404 1146.02L728.136 1114.54C696.651 1166.39 648.496 1205.29 576.263 1205.29C488.288 1205.29 405.869 1138.61 403.091 1032.12H793.886C796.664 1016.37 797.59 999.705 797.59 987.666C797.59 869.131 711.467 751.522 568.855 751.522C432.725 751.522 329.933 859.871 329.933 1008.97C329.933 1159.91 437.355 1270.11 576.263 1270.11ZM568.855 816.346C651.274 816.346 721.654 878.392 722.58 967.293H404.943C416.056 873.761 488.288 816.346 568.855 816.346ZM1012.87 1270.11C1089.73 1270.11 1154.56 1235.85 1186.97 1187.69V1259H1256.42V918.212C1256.42 820.05 1179.56 751.522 1070.28 751.522C986.94 751.522 904.521 802.455 876.739 865.427L939.711 899.691C961.936 851.536 1009.16 818.198 1070.28 818.198C1138.81 818.198 1186.97 858.944 1186.97 918.212V944.142L1007.31 973.775C897.112 992.296 848.958 1053.42 848.958 1130.28C848.958 1211.77 918.412 1270.11 1012.87 1270.11ZM923.042 1127.5C923.042 1082.12 951.75 1046.01 1023.98 1033.97L1186.97 1007.11V1044.16C1186.97 1135.83 1118.44 1207.14 1017.5 1207.14C961.936 1207.14 923.042 1171.95 923.042 1127.5ZM1306.67 1259H1681.73V1189.55H1402.06L1679.87 822.828V762.635H1322.42V832.089H1585.42L1306.67 1198.81V1259ZM1783.79 1462.73C1881.96 1462.73 1931.96 1395.13 1961.6 1321.97L2188.48 762.635H2111.62L1949.56 1171.95L1787.5 762.635H1712.49L1910.66 1259L1893.07 1301.6C1862.51 1372.9 1836.58 1393.28 1776.39 1393.28C1756.01 1393.28 1735.64 1389.57 1723.6 1387.72V1452.55C1743.05 1459.95 1764.35 1462.73 1783.79 1462.73Z" fill="url(#paint0_linear_152_30)"/>
<path d="M123.966 1738H207.218V1358.2H322.676V1285.28H6.68444V1358.2H123.966V1738ZM272.353 1738H361.681L394.496 1640.77H569.506L601.713 1738H691.649L535.476 1285.28H428.525L272.353 1738ZM418.195 1567.85L482.001 1377.04L545.807 1567.85H418.195ZM671.544 1738H766.341L866 1584.87L965.051 1738H1059.85L912.183 1510.12L1058.63 1285.28H963.836L866 1435.99L767.556 1285.28H672.759L819.817 1510.12L671.544 1738ZM1076.94 1738H1377.74V1665.08H1159.59V1547.19H1365.59V1474.27H1159.59V1358.2H1377.74V1285.28H1076.94V1738ZM1566.56 1745.29C1659.54 1745.29 1723.95 1690.6 1723.95 1612.82C1723.95 1552.05 1688.1 1510.73 1615.79 1487.64L1532.54 1461.51C1499.72 1451.18 1483.31 1431.12 1483.31 1406.21C1483.31 1372.79 1511.27 1350.3 1553.2 1350.3C1599.99 1350.3 1637.66 1376.43 1655.29 1421.4L1723.35 1391.02C1699.04 1322.96 1634.62 1277.99 1553.2 1277.99C1463.87 1277.99 1401.88 1332.07 1401.88 1409.85C1401.88 1469.41 1437.74 1513.77 1508.23 1536.25L1595.13 1564.2C1626.72 1574.54 1642.52 1590.94 1642.52 1617.68C1642.52 1651.1 1613.96 1672.98 1570.82 1672.98C1519.17 1672.98 1475.41 1641.99 1453.54 1589.73L1384.87 1619.5C1409.18 1694.86 1480.27 1745.29 1566.56 1745.29Z" fill="#353333"/>
<rect x="1826" y="1448" width="737" height="290" rx="145" fill="url(#paint1_linear_152_30)"/>
<path d="M1927.66 1664H1958.42V1631.38H1927.66V1664ZM2049.52 1666.8C2077.02 1666.8 2099.62 1651.18 2107.08 1629.51L2080.28 1617.39C2075.39 1630.68 2064.2 1638.83 2049.52 1638.83C2029.48 1638.83 2015.03 1622.75 2015.03 1600.62C2015.03 1578.48 2029.48 1562.4 2049.52 1562.4C2063.97 1562.4 2075.39 1570.79 2080.28 1583.61L2107.08 1571.95C2099.15 1549.58 2076.55 1534.44 2049.52 1534.44C2011.54 1534.44 1983.34 1562.87 1983.34 1600.38C1983.34 1638.13 2011.54 1666.8 2049.52 1666.8ZM2179.41 1666.8C2216.23 1666.8 2246.29 1639.07 2246.29 1600.62C2246.29 1562.4 2216.46 1534.44 2179.41 1534.44C2141.89 1534.44 2112.3 1562.4 2112.3 1600.62C2112.3 1638.83 2142.12 1666.8 2179.41 1666.8ZM2179.41 1638.83C2158.67 1638.83 2143.99 1622.75 2143.99 1600.62C2143.99 1578.71 2158.67 1562.4 2179.41 1562.4C2199.68 1562.4 2214.36 1578.71 2214.36 1600.62C2214.36 1622.75 2199.68 1638.83 2179.41 1638.83ZM2256.62 1664H2287.15V1589.66C2287.15 1573.12 2296.93 1562.4 2311.61 1562.4C2326.53 1562.4 2336.08 1572.89 2336.08 1589.66V1664H2366.61V1589.66C2366.61 1573.12 2376.4 1562.4 2391.08 1562.4C2405.99 1562.4 2415.54 1572.89 2415.54 1589.66V1664H2446.07V1582.44C2446.07 1554.01 2426.03 1534.44 2399.23 1534.44C2382.45 1534.44 2368.47 1541.19 2359.85 1554.94C2352.39 1542.36 2337.71 1534.44 2320.7 1534.44C2304.86 1534.44 2291.81 1540.73 2285.28 1553.08V1537.23H2256.62V1664Z" fill="#205136"/>
<path d="M1868 1391.5C1868 1419.94 1808.5 1461.5 1753.63 1464C1752.5 1463.5 1689.45 1470.72 1656 1420.5C1568.5 1289.13 1619.93 1290.73 1702 1350.5C1746.5 1421 1802 1428 1868 1391.5Z" fill="#353333"/>
<defs>
<linearGradient id="paint0_linear_152_30" x1="2199" y1="1715.5" x2="-16.9616" y2="681.24" gradientUnits="userSpaceOnUse">
<stop stop-color="#00F16C"/>
<stop offset="1" stop-color="#0D71BA"/>
</linearGradient>
<linearGradient id="paint1_linear_152_30" x1="2194.5" y1="1448" x2="2938.5" y2="2217.5" gradientUnits="userSpaceOnUse">
<stop stop-color="#00F16C"/>
<stop offset="1" stop-color="#0D71BA"/>
</linearGradient>
</defs>
</svg>